<svg width="16" height="16" viewBox="0 0 16 16" fill="none" xmlns="http://www.w3.org/2000/svg">
<g id="Iconly/Curved/Outline/Delete">
<g id="Union">
<path fill-rule="evenodd" clip-rule="evenodd" d="M5.20761 3.84977C5.23621 3.38658 5.36809 2.72524 5.83261 2.19105C6.32394 1.62505 7.05328 1.33838 7.99928 1.33838C8.94594 1.33838 9.67461 1.62505 10.1666 2.19105C10.631 2.72513 10.7627 3.38654 10.7912 3.84977H13.3835C13.6595 3.84977 13.8835 4.07377 13.8835 4.34977C13.8835 4.62577 13.6595 4.84977 13.3835 4.84977H2.61621C2.34021 4.84977 2.11621 4.62577 2.11621 4.34977C2.11621 4.07377 2.34021 3.84977 2.61621 3.84977H5.20761ZM9.78934 3.84977C9.76412 3.54851 9.67554 3.14763 9.40794 2.84238C9.11461 2.50771 8.64061 2.33838 7.99928 2.33838C7.35861 2.33838 6.88461 2.50771 6.59061 2.84238C6.32301 3.14763 6.23463 3.54851 6.20949 3.84977H9.78934Z" fill="white"/>
<path d="M7.99252 14.6616C6.01985 14.6616 4.80519 14.3196 4.05452 13.5543C2.99582 12.4749 3.03048 10.7057 3.07843 8.25797L3.07852 8.25361C3.08985 7.67961 3.10185 7.06227 3.10185 6.39827C3.10185 6.12227 3.32585 5.89827 3.60185 5.89827C3.87785 5.89827 4.10185 6.12227 4.10185 6.39827C4.10185 7.06894 4.08985 7.69361 4.07785 8.27361C4.03319 10.5623 4.00385 12.0736 4.76852 12.8536C5.30852 13.4049 6.33319 13.6616 7.99252 13.6616C9.65519 13.6616 10.6819 13.4036 11.2245 12.8509C11.9938 12.0663 11.9652 10.5458 11.9219 8.24399L11.9207 8.17956C11.9103 7.62699 11.8992 7.03299 11.8992 6.39827C11.8992 6.12227 12.1232 5.89827 12.3992 5.89827C12.6752 5.89827 12.8992 6.12227 12.8992 6.39827C12.8992 7.05094 12.9105 7.65894 12.9219 8.22494L12.9219 8.23006C12.9679 10.6901 13.0011 12.4684 11.9379 13.5516C11.1852 14.3189 9.96785 14.6616 7.99252 14.6616Z" fill="white"/>
</g>
</g>
</svg>
